<?xml version="1.0" standalone="no"?>
<!DOCTYPE svg PUBLIC "-//W3C//DTD SVG 20010904//EN"
 "http://www.w3.org/TR/2001/REC-SVG-20010904/DTD/svg10.dtd">
<svg version="1.0" xmlns="http://www.w3.org/2000/svg"
 width="500.000000pt" height="500.000000pt" viewBox="0 0 500.000000 500.000000"
 preserveAspectRatio="xMidYMid meet">
<metadata>
Created by potrace 1.11, written by Peter Selinger 2001-2013
</metadata>
<g transform="translate(0.000000,500.000000) scale(0.100000,-0.100000)"
fill="#000000" stroke="none">
<path d="M0 2500 l0 -2500 2500 0 2500 0 0 2500 0 2500 -2500 0 -2500 0 0
-2500z m1600 851 c0 -13 -16 -24 -61 -41 -74 -27 -143 -90 -158 -146 -15 -55
-14 -95 9 -219 11 -60 20 -130 20 -157 0 -118 -90 -246 -221 -311 l-71 -35 58
-28 c85 -41 185 -143 212 -217 27 -72 27 -123 2 -262 -11 -60 -20 -124 -20
-143 0 -100 64 -184 169 -222 45 -17 61 -28 61 -41 0 -23 -4 -23 -79 0 -82 25
-138 60 -193 119 -104 111 -124 205 -89 409 26 151 26 176 0 230 -27 55 -80
99 -146 120 -36 11 -53 22 -53 33 0 11 17 22 53 33 96 30 166 113 167 195 0
19 -10 89 -21 155 -37 210 -11 316 103 423 60 57 97 79 178 105 71 23 80 23
80 0z m2005 -25 c116 -31 225 -117 277 -220 41 -81 46 -159 19 -313 -26 -151
-26 -176 0 -230 27 -55 80 -99 147 -120 35 -11 52 -22 52 -33 0 -11 -17 -22
-52 -33 -67 -21 -120 -65 -147 -120 -26 -54 -26 -79 0 -230 35 -200 13 -300
-87 -408 -57 -60 -113 -94 -195 -120 -75 -23 -79 -23 -79 0 0 13 16 24 61 41
74 27 143 90 158 146 15 55 14 95 -9 219 -11 60 -20 130 -20 157 0 118 90 246
221 311 l71 35 -58 28 c-85 41 -185 143 -212 217 -27 72 -27 123 -2 262 23
124 24 164 9 219 -15 56 -84 119 -158 146 -45 17 -61 28 -61 41 0 22 1 23 65
5z m-1713 -607 c41 -9 63 -21 95 -53 69 -69 71 -160 4 -227 -47 -48 -103 -63
-198 -55 l-73 6 0 -118 c0 -132 6 -149 60 -162 24 -5 -12 -8 -105 -8 -93 0
-129 3 -105 8 59 14 60 17 60 305 0 288 -1 291 -60 305 -56 13 261 12 322 -1z
m423 4 c-37 -9 -47 -25 -41 -63 5 -31 131 -399 140 -407 2 -2 22 62 46 142 40
136 42 148 30 188 -22 74 -49 118 -83 132 -29 13 -21 14 98 13 72 0 119 -3
105 -5 -34 -7 -50 -21 -50 -46 0 -24 132 -417 140 -417 12 0 141 390 138 417
-2 22 -11 31 -38 40 -32 11 -25 12 65 12 95 0 98 0 67 -14 -40 -17 -42 -22
-158 -362 -49 -145 -94 -263 -100 -263 -7 0 -31 53 -53 118 -79 223 -95 265
-98 256 -1 -5 -27 -90 -57 -189 -43 -146 -57 -181 -72 -183 -16 -2 -32 34
-108 250 -135 384 -124 358 -160 374 -28 12 -21 13 89 12 66 0 111 -3 100 -5z
m1116 -17 c66 -24 123 -77 156 -144 25 -50 28 -68 28 -147 -1 -104 -19 -151
-88 -223 -72 -74 -118 -86 -357 -88 -129 -2 -192 0 -170 6 59 15 60 18 60 305
0 287 -1 290 -60 305 -22 6 43 8 175 6 168 -2 219 -6 256 -20z"/>
<path d="M1733 2693 c-10 -3 -13 -41 -13 -138 0 -149 -2 -145 80 -145 134 0
178 189 61 267 -32 22 -95 30 -128 16z"/>
<path d="M3173 2693 l-23 -4 0 -273 0 -273 31 -7 c100 -20 177 2 246 69 58 56
83 120 83 210 0 90 -25 154 -84 211 -67 65 -149 87 -253 67z"/>
</g>
</svg>
